<?xml version="1.0" encoding="UTF-8" standalone="no"?>
<svg
   xmlns:dc="http://purl.org/dc/elements/1.1/"
   xmlns:cc="http://web.resource.org/cc/"
   xmlns:rdf="http://www.w3.org/1999/02/22-rdf-syntax-ns#"
   xmlns:svg="http://www.w3.org/2000/svg"
   xmlns="http://www.w3.org/2000/svg"
   xmlns:sodipodi="http://sodipodi.sourceforge.net/DTD/sodipodi-0.dtd"
   xmlns:inkscape="http://www.inkscape.org/namespaces/inkscape"
   width="3000"
   height="2000"
   viewBox="0 -410 3080 1900"
   id="svg2"
   sodipodi:version="0.32"
   inkscape:version="0.45.1"
   sodipodi:docname="Mu_uc_lc.svg"
   inkscape:output_extension="org.inkscape.output.svg.inkscape"
   sodipodi:docbase="C:\Documents and Settings\Flanker\Desktop"
   version="1.0">
  <metadata
     id="metadata15">
    <rdf:RDF>
      <cc:Work
         rdf:about="">
        <dc:format>image/svg+xml</dc:format>
        <dc:type
           rdf:resource="http://purl.org/dc/dcmitype/StillImage" />
      </cc:Work>
    </rdf:RDF>
  </metadata>
  <defs
     id="defs13" />
  <sodipodi:namedview
     inkscape:window-height="1005"
     inkscape:window-width="1280"
     inkscape:pageshadow="2"
     inkscape:pageopacity="0.0"
     guidetolerance="10.0"
     gridtolerance="10.0"
     objecttolerance="10.0"
     borderopacity="1.0"
     bordercolor="#666666"
     pagecolor="#ffffff"
     id="base"
     inkscape:zoom="0.19947368"
     inkscape:cx="1605.3276"
     inkscape:cy="1351.0554"
     inkscape:window-x="-4"
     inkscape:window-y="-4"
     inkscape:current-layer="svg2"
     width="3000px"
     height="2000px"
     inkscape:showpageshadow="false" />
  <text
     xml:space="preserve"
     style="font-size:12px;font-style:normal;font-weight:normal;fill:#000000;fill-opacity:1;stroke:none;stroke-width:1px;stroke-linecap:butt;stroke-linejoin:miter;stroke-opacity:1;font-family:Lello"
     x="-471.24011"
     y="-946.41162"
     id="text2171"><tspan
       sodipodi:role="line"
       id="tspan2173"
       x="-471.24011"
       y="-946.41162"></tspan></text>
  <path
     style="font-size:2050.27807617px;font-style:normal;font-weight:normal;fill:#000000;fill-opacity:1;stroke:none;stroke-width:1px;stroke-linecap:butt;stroke-linejoin:miter;stroke-opacity:1;font-family:Times New Roman"
     d="M 170.47832,684.1602 L 207.51948,684.1602 C 210.18901,731.54645 224.20457,764.58312 249.5662,783.27032 C 274.92755,801.95795 315.3057,811.30165 370.70079,811.30147 L 644.00446,811.30147 L 642.00224,744.22694 C 535.8839,722.87015 439.10981,663.80458 351.67966,567.03005 C 264.24903,470.25639 220.53383,348.12081 220.53394,200.62294 C 220.53383,37.108882 281.43477,-102.3793 403.23694,-217.84202 C 525.03853,-333.30231 684.04838,-391.03307 880.26697,-391.03446 C 1070.4774,-391.03307 1225.9833,-336.4725 1346.7853,-227.35259 C 1467.5849,-118.23023 1527.9852,21.424805 1527.9867,191.61293 C 1527.9852,329.7671 1490.4436,447.06398 1415.3615,543.50391 C 1340.2769,639.94476 1238.6641,706.85237 1110.5228,744.22694 L 1100.5117,811.30147 L 1378.8209,811.30147 C 1442.2234,811.30165 1484.1032,799.28832 1504.4605,775.26142 C 1524.8151,751.23497 1535.6604,720.86793 1536.9967,684.1602 L 1574.0378,684.1602 L 1574.0378,997.50836 L 1013.4149,997.50836 L 1039.4438,695.17243 C 1211.6341,641.11272 1297.7296,481.93602 1297.7308,217.64185 C 1297.7296,44.784069 1255.5161,-87.696332 1171.0901,-179.79975 C 1086.662,-271.90082 987.71882,-317.95194 874.2603,-317.95326 C 753.45877,-317.95194 653.51449,-269.06434 574.42715,-171.2903 C 495.33889,-73.513921 455.795,51.458145 455.79534,203.62627 C 455.795,313.74932 473.4813,414.0273 508.8543,504.46053 C 544.2265,594.89475 611.96836,658.46532 712.0801,695.17243 L 731.10123,997.50836 L 170.47832,997.50836 L 170.47832,684.1602 z M 2311.8576,827.31926 C 2253.7925,959.46613 2165.0273,1025.5395 2045.5617,1025.5395 C 1962.1354,1025.5395 1885.5503,986.99669 1815.8064,909.91103 C 1746.0622,832.82555 1711.1901,721.86904 1711.1902,577.04118 C 1711.1901,458.24305 1732.0466,361.3021 1773.7597,286.21804 C 1815.4726,211.1354 1870.0331,153.5715 1937.4416,113.52616 C 2004.8495,73.482594 2094.6158,53.460367 2206.7408,53.459423 L 2206.7408,90.50058 C 2107.9639,90.501487 2031.212,131.21335 1976.485,212.63629 C 1921.7572,294.06079 1894.3935,409.5223 1894.3938,559.02116 C 1894.3935,710.52311 1912.2467,814.30499 1947.9533,870.36709 C 1983.6593,926.42946 2025.8728,954.46057 2074.594,954.46053 C 2105.9617,954.46057 2136.4956,944.78316 2166.1958,925.42827 C 2195.8949,906.07353 2216.7514,885.55074 2228.7653,863.85986 C 2240.778,842.16925 2259.1317,797.6198 2283.8265,730.21137 C 2241.7791,642.11384 2220.7558,549.01048 2220.7564,450.90102 C 2220.7558,302.06968 2251.1228,227.65374 2311.8576,227.65297 C 2372.591,227.65374 2402.9581,296.39672 2402.9588,433.88211 C 2402.9581,528.65455 2380.9336,627.43087 2336.8854,730.21137 C 2384.9381,879.71093 2453.681,954.46057 2543.1146,954.46053 C 2593.1692,954.46057 2636.3839,928.26483 2672.7586,875.87321 C 2709.1313,823.48184 2727.3181,724.53867 2727.3192,579.0434 C 2727.3181,457.57565 2715.4717,364.63914 2691.7797,300.23362 C 2668.0857,235.82948 2632.88,185.44021 2586.1624,149.06565 C 2539.4429,112.69279 2482.3796,93.171117 2414.9722,90.50058 L 2414.9722,53.459423 C 2527.0959,53.460367 2616.8622,73.816298 2684.2714,114.52728 C 2751.6785,155.24002 2806.0722,212.63707 2847.4527,286.7186 C 2888.8308,360.80155 2909.5204,456.57453 2909.5217,574.03784 C 2909.5204,720.86793 2875.9832,832.82555 2808.9099,909.91103 C 2741.8342,986.99669 2663.5807,1025.5395 2574.149,1025.5395 C 2451.3451,1025.5395 2363.9147,959.46613 2311.8576,827.31926 L 2311.8576,827.31926 z "
     id="text2175" />
</svg>
